<?xml version="1.0" encoding="UTF-8" standalone="no"?>
<!DOCTYPE svg PUBLIC "-//W3C//DTD SVG 1.1//EN" "http://www.w3.org/Graphics/SVG/1.1/DTD/svg11.dtd">
<svg width="100%" height="100%" viewBox="0 0 2048 1536" version="1.1" xmlns="http://www.w3.org/2000/svg" xmlns:xlink="http://www.w3.org/1999/xlink" xml:space="preserve" xmlns:serif="http://www.serif.com/" style="fill-rule:evenodd;clip-rule:evenodd;stroke-linecap:round;stroke-linejoin:round;stroke-miterlimit:1.5;">
    <g transform="matrix(1.04805,0.0459213,-0.0459213,1.04805,-2.78765,-49.8318)">
        <path d="M336.954,351.091L336.951,351.113L336.945,351.172L336.926,351.327L336.92,351.424L336.914,351.481L336.912,351.526L336.908,351.597L336.901,351.871C336.901,353.224 337.466,354.446 338.374,355.313C339.402,356.764 347.884,368.738 348.33,369.531C355.263,381.857 361.571,394.727 367.012,407.785C381.431,442.389 413.494,520.027 432.547,552.416C452.844,586.921 474.085,621.991 499.407,649.627C538.262,692.031 586.611,717.168 655.417,697.509C674.782,691.976 707.33,672.822 722.165,652.225C736.989,631.644 745.56,604.237 744.431,573.959C743.6,551.659 725.214,505.219 686.537,486.023C617.614,451.818 627.836,470.236 542.416,446.94C517.397,440.116 491.378,422.732 465.42,404.774C438.66,386.26 411.982,367.116 386.648,357.34C377.483,353.803 354.379,347.236 345.508,346.477C343.628,346.316 342.173,346.419 341.254,346.642C340.007,346.945 339.141,347.508 338.55,348.065C337.635,348.926 337.113,349.94 336.954,351.091ZM351.343,357.074C353.903,360.756 356.369,364.38 356.638,364.858C363.754,377.508 370.227,390.717 375.811,404.119C390.111,438.439 421.867,515.46 440.763,547.582C460.717,581.504 481.541,616.019 506.435,643.187C542.904,682.987 588.218,706.795 652.798,688.344C670.663,683.24 700.745,665.654 714.43,646.654C728.127,627.638 735.948,602.289 734.906,574.314C734.151,554.078 717.397,511.981 682.299,494.562C614.226,460.778 624.274,479.145 539.908,456.136C513.974,449.063 486.903,431.228 459.996,412.613C433.891,394.552 407.93,375.77 383.216,366.233C376.415,363.608 361.508,359.202 351.343,357.074ZM344.059,355.993L344.087,355.996C343.507,356.351 342.836,356.577 342.056,356.621L342.155,356.613L342.393,356.583C342.992,356.491 343.555,356.287 344.059,355.993ZM346.421,352.197L346.417,352.25L346.42,352.224L346.421,352.197Z"/>
    </g>
    <g transform="matrix(0.990148,-0.0206423,0.0206423,0.990148,-10.0417,33.0052)">
        <g id="Слой1">
            <path d="M747.086,607.412L767.254,627.423C874.554,733.908 1377.24,1232.65 1540.69,1389.98C1345.22,1243.36 700.889,726.793 671.835,687.299C670.183,685.055 667.021,684.573 664.776,686.224C662.532,687.875 662.05,691.038 663.701,693.283C694.53,735.188 1416,1313.01 1564.15,1419.85C1575.92,1428.34 1584.17,1433.9 1588.25,1436.09C1589.73,1436.88 1591,1437.3 1592,1437.5C1593.68,1438.25 1595.09,1437.99 1596.08,1437.66C1598.53,1436.86 1600.24,1434.09 1599.98,1431.41C1599.64,1427.9 1596.81,1426.04 1594.07,1426.29L1593.93,1426.3C1533.85,1373.88 896.742,741.702 774.366,620.256C761.893,607.877 754.761,600.798 754.125,600.172C737.775,584.07 725.936,586.264 747.042,607.37L747.086,607.412ZM748.408,608.342C749.029,608.656 749.615,608.789 750.125,608.824C749.534,608.767 748.952,608.607 748.408,608.342ZM755.49,602.505L755.503,602.553L755.5,602.538L755.49,602.505ZM755.4,602.201L755.417,602.253L755.407,602.219L755.4,602.201Z"/>
        </g>
    </g>
    <g id="Слой2">
        <path d="M382.568,352.25C383.483,352.712 386.145,354.098 388.583,355.757C409.067,369.689 461.949,417.578 522.018,513.851C590.046,622.882 683.377,605.732 683.377,605.732C685.497,605.353 687.135,603.659 687.445,601.528C687.754,599.398 686.665,597.308 684.741,596.342C684.741,596.342 627.239,567.521 595.116,531.091C566.91,499.104 548.541,457.022 545.713,449.487L545.573,449.096C545.39,448.15 544.933,447.247 544.201,446.516C541.803,444.117 539.464,445.01 538.304,445.626C537.341,446.137 535.684,447.247 535.643,449.985C535.64,450.203 535.706,451.284 536.351,453.001C539.286,460.821 558.34,504.506 587.615,537.705C610.049,563.146 644.421,585.038 664.383,596.575C635.767,595.397 576.994,583.073 530.502,508.558C469.238,410.368 415.099,361.698 394.207,347.488C389.096,344.011 385.481,342.463 383.868,342.222C381.682,341.895 380.229,342.623 379.335,343.33C377.17,345.041 376.802,348.188 378.513,350.353C379.528,351.637 381.047,352.289 382.568,352.25ZM542.369,454.751C540.602,455.391 538.546,455.002 537.13,453.587C539.141,455.597 541.111,455.272 542.369,454.751ZM385.254,351.381L385.199,351.418L385.217,351.407L385.254,351.381ZM385.358,351.309C385.419,351.265 385.478,351.221 385.536,351.175L385.358,351.309Z"/>
        <g transform="matrix(0.936009,-1.12158,1.27189,1.06146,-866.016,825.703)">
            <path d="M776.154,721.724C793.051,724.971 806.749,709.862 814.686,702.38C821.998,695.488 820.039,739.518 815.28,750.31C810.732,760.624 794.934,771.381 774.029,769.667C753.126,767.954 736.347,754.296 732.158,743.22C727.84,731.806 727.636,692.442 732.139,693.724C742.4,696.647 755.239,720.491 776.154,721.724Z" style="fill:white;stroke:black;stroke-width:6.4px;"/>
        </g>
    </g>
    <g id="Слой3">
    </g>
</svg>
