<svg width="265" height="292" viewBox="0 0 265 292" fill="none" xmlns="http://www.w3.org/2000/svg">
<path d="M140.24 0.159973C142.15 0.519973 144.07 0.789975 145.95 1.23997C153.95 3.14997 160.61 7.41998 166.47 13.05C172.14 18.5 176.93 24.6 180.26 31.77C182.08 35.68 183.26 39.76 183.61 44.08C183.65 44.52 183.9 45.11 184.24 45.35C194.84 52.74 201.69 62.88 205.92 74.91C206.53 76.66 207.41 77.38 209.17 78.02C212.33 79.17 215.35 80.81 218.22 82.59C223.99 86.17 229.26 90.41 233.36 95.9C234.97 98.06 236.15 100.54 237.58 102.84C237.88 103.32 238.37 103.84 238.89 104.01C244.25 105.77 249.31 108.06 253.66 111.73C259.66 116.79 263.07 123.22 263.86 131.03C263.88 131.25 264 131.46 264.07 131.67C264.07 133.35 264.07 135.03 264.07 136.71C263.75 138.59 263.54 140.49 263.11 142.34C261.04 151.24 257.26 159.29 251.12 166.16C250.72 166.61 250.41 167.23 250.26 167.82C245.89 184.67 241.55 201.53 237.19 218.39C232.26 237.49 227.33 256.58 222.41 275.68C221.8 278.05 220.45 279.8 218.44 281.17C214.34 283.96 209.64 285.08 204.94 286.21C194.25 288.76 183.39 290.09 172.44 290.54C160.46 291.03 148.48 291.39 136.49 291.52C121.86 291.68 107.24 291.02 92.67 289.54C82.34 288.49 72 287.41 61.86 285.02C59.49 284.46 57.18 283.7 54.83 283.05C50.73 281.93 48.07 279.22 46.89 275.27C45.76 271.5 45.08 267.59 44.13 263.76C42.72 258.11 41.26 252.46 39.78 246.83C34.86 228.14 29.92 209.46 25.01 190.78C24.76 189.85 24.32 189.19 23.55 188.58C14.12 181.07 6.59999 172.11 2.61999 160.54C-0.620008 151.11 -0.0700076 141.7 3.22999 132.45C9.06999 116.11 20 104.71 36.64 99.28C39.42 98.37 41.26 97.18 42.76 94.6C45.97 89.07 51.04 85.72 57.18 84.03C58.1 83.78 58.33 83.36 58.41 82.49C59.04 75.92 60.59 69.66 64.85 64.36C67.46 61.12 70.78 58.94 74.67 57.56C75.24 57.36 75.84 56.87 76.13 56.36C78.45 52.24 81.76 49.25 86.06 47.31C86.5 47.11 86.99 46.64 87.12 46.2C90.17 35.81 96.75 28.92 107.21 25.84C107.32 25.81 107.42 25.74 107.6 25.66C107.51 25.05 107.27 24.41 107.35 23.81C107.55 22.25 107.5 20.49 108.22 19.19C112.67 11.19 118.86 5.01997 127.68 1.94997C129.92 1.16997 132.34 0.899973 134.67 0.389973C134.93 0.329973 135.19 0.239971 135.45 0.169971C137.04 0.159971 138.64 0.159973 140.24 0.159973ZM66.8 91.04C66.2 90.95 65.93 90.86 65.66 90.87C59.14 91.08 53.6 93.27 49.99 99.01C48.96 100.65 48.31 102.53 47.56 104.33C47.31 104.93 47.08 105.23 46.36 105.36C43.97 105.8 41.54 106.18 39.25 106.96C26.12 111.41 17.27 120.41 12.13 133.12C9.24 140.27 8.03999 147.7 10.09 155.3C13.4 167.57 21.19 176.59 31.32 183.84C31.82 184.19 32.29 184.8 32.45 185.37C37.41 204.01 42.37 222.64 47.23 241.3C49.34 249.41 51.25 257.57 53.27 265.71C53.85 268.03 54.42 270.36 55.07 272.66C55.49 274.14 56.43 275.1 58.01 275.48C60.65 276.12 63.22 277.01 65.87 277.59C76.08 279.82 86.46 280.88 96.84 281.86C110.06 283.11 123.32 283.69 136.59 283.56C148.42 283.44 160.24 283.08 172.06 282.61C182.98 282.18 193.81 280.88 204.44 278.29C207.81 277.47 211.26 276.79 214.19 274.8C214.78 274.4 215.34 273.67 215.52 272.98C221.34 250.61 227.1 228.22 232.88 205.84C236.48 191.88 240.08 177.93 243.7 163.98C243.86 163.35 244.12 162.65 244.55 162.2C251.23 155.36 255.06 147.11 256.47 137.73C257.9 128.18 253.85 120.05 245.47 115.23C241.59 113 237.41 111.57 233.09 110.52C232.65 110.41 232.02 109.99 231.96 109.64C231.39 106.36 229.88 103.53 227.88 100.93C223.99 95.89 219.01 92.1 213.7 88.69C210.24 86.47 206.65 84.77 202.41 84.97C201.66 85 201.34 84.7 201.13 83.93C199.49 78.06 197.42 72.36 194.28 67.11C189.8 59.65 184.17 53.38 175.94 49.63C176.65 46.08 176.43 42.39 175.12 38.83C170.85 27.24 163.16 18.41 152.65 12.13C146.99 8.74997 140.7 7.31998 134.09 8.61998C125.76 10.26 120.22 15.62 116.01 22.65C115.96 22.74 115.98 22.88 115.96 23.07C116.25 23.16 116.53 23.25 116.81 23.34C116.72 23.6 116.62 23.87 116.51 24.18C117.68 24.39 118.49 24.06 119.35 23.38C120.8 22.23 122.32 21.04 123.99 20.29C126.51 19.16 129.02 20.06 130.41 22.2C131.98 24.62 131.69 27.97 129.72 30.09C127.88 32.08 125.49 32.71 122.9 32.8C120.13 32.9 117.4 32.47 114.59 32.69C106 33.33 98.78 38.53 96.05 46.71C95.35 48.81 95.02 51.04 94.49 53.31C87.71 54.41 83.32 58.23 82.11 65.41C81.53 65.35 81 65.31 80.47 65.24C79.85 65.16 79.17 64.85 78.61 64.99C74.41 66.04 71.56 68.75 69.7 72.57C67.65 76.79 67.04 81.33 66.83 85.95C66.74 87.6 66.8 89.26 66.8 91.04Z" fill="black"/>
<path d="M232.06 111.97C237.04 112.98 241.74 114.39 245.85 117.23C252.84 122.07 256.31 128.63 254.67 137.22C252.71 147.48 248.15 156.41 240.04 163.22C234.91 167.53 228.86 170.14 222.53 172.14C214.24 174.76 205.73 176 197.05 176.2C179.46 176.6 162.49 173.26 145.9 167.7C128.67 161.93 112.59 153.85 97.7 143.43C89.49 137.68 82.19 130.97 76.48 122.65C73.83 118.79 72.44 114.43 71.27 109.98C69.47 103.14 68.51 96.18 68.56 89.12C68.59 83.62 69.13 78.17 71.69 73.15C73.19 70.2 75.34 67.92 78.58 66.85C79.88 66.42 81.78 67.77 81.8 69.17C81.93 77.18 84.56 84.41 88.51 91.27C92.27 97.81 97.92 101.91 104.94 104.29C110.84 106.29 116.81 108.07 122.64 110.26C129.89 112.98 136.96 116.17 144.2 118.91C155.89 123.34 167.93 126.5 180.36 127.99C191.24 129.3 202.14 129.67 212.92 127.31C216.32 126.57 219.7 125.41 222.85 123.93C227.82 121.59 231.35 117.87 232.06 111.97ZM233.32 129.15C233.64 130.25 233.93 131.04 234.09 131.84C234.68 134.73 234.17 137.56 233.58 140.38C231.81 148.81 226.81 154.1 218.27 155.64C214.16 156.38 209.96 156.78 205.79 157.03C196.51 157.59 187.45 156.09 178.62 153.34C166.91 149.68 155.1 146.48 143.03 144.23C135.21 142.78 127.5 140.86 120.1 137.86C118.17 137.08 116.28 136.2 114.37 135.36C115.76 136.9 117.25 138.29 118.85 139.53C125.31 144.52 132.63 147.89 140.27 150.58C151.07 154.4 161.91 158.09 172.75 161.77C182.27 165.01 192 167.05 202.14 166.49C208.34 166.15 214.47 165.37 220.39 163.36C225.95 161.47 230.72 158.48 233.84 153.34C237.14 147.9 237.51 141.96 236.58 135.85C236.2 133.43 235.37 131.16 233.32 129.15Z" fill="black"/>
<path d="M66.65 92C66.93 95.3 67.12 98.56 67.5 101.81C68.91 114.08 74.08 124.55 82.69 133.38C90.47 141.36 99.65 147.44 109.19 153.03C126.13 162.95 144.14 170.18 163.37 174.27C173.09 176.34 182.92 177.49 192.86 177.57C193.3 177.57 193.73 177.57 194.52 177.57C193.94 178.61 193.63 179.62 192.97 180.27C191.15 182.05 189.37 183.96 187.26 185.31C179.52 190.25 170.93 193.13 161.95 194.79C143.9 198.12 126.47 195.47 109.52 188.94C93.65 182.82 79.66 173.73 67.52 161.82C58.85 153.31 53.54 142.88 50.24 131.31C48.68 125.85 47.72 120.33 48.09 114.64C48.37 110.3 49.2 106.09 51.17 102.16C53.92 96.65 58.22 93.28 64.48 92.69C64.88 92.65 65.29 92.67 65.67 92.56C66.01 92.42 66.33 92.18 66.65 92ZM80.17 156.84C80.25 157.06 80.32 157.29 80.42 157.51C82.82 163.05 86.64 167.47 91.48 170.96C104.83 180.59 119.87 183.75 136.07 182.24C136.73 182.18 137.38 182 137.88 181.91C130.72 180.22 123.44 178.74 116.29 176.76C102.69 173 90.02 167.44 80.17 156.84Z" fill="black"/>
<path d="M193.16 127.84C180.57 127.63 168.39 125.03 156.56 120.94C145.93 117.26 135.51 112.97 124.96 109.06C119.08 106.88 113.11 104.99 107.21 102.85C103.41 101.47 99.83 99.6 96.5 97.29C91.96 94.13 88.69 90.04 86.89 84.78C84.6 78.09 83.38 71.31 85.06 64.3C86.05 60.16 88.24 56.9 92.53 55.5C93.63 55.14 94.71 55.76 94.83 56.83C95.83 65.86 100.56 72.4 108.24 76.98C113.92 80.38 120.13 82.34 126.63 83.14C133.56 83.99 140.54 84.55 147.51 85.03C156.36 85.64 165.22 86.07 174.08 86.52C180.15 86.83 186.22 87.07 192.29 87.26C196.44 87.4 200.59 87.33 204.73 87.52C206.21 87.59 207.77 87.94 209.13 88.54C217.55 92.24 223.75 98.29 227.73 106.57C228.73 108.64 229.25 110.87 229.13 113.19C228.91 117.36 226.52 120.05 222.94 121.76C214.71 125.71 205.97 127.56 196.88 127.81C195.64 127.87 194.4 127.84 193.16 127.84ZM132.89 104.16C135.21 104.45 137.54 104.74 139.86 105.04C146.43 105.9 152.9 107.3 158.77 110.42C172.03 117.47 186.29 119.92 201.08 120.08C204.96 120.12 208.82 119.63 212.35 117.76C218.43 114.54 219.79 106.72 215.05 101.84C212.67 99.39 209.73 97.93 206.36 97.36C205.35 97.19 204.31 97.14 203.29 97.03C203.64 97.4 204.01 97.49 204.39 97.61C208.06 98.76 211.26 100.57 213.52 103.82C215.77 107.07 214.94 112.53 210.44 114.2C208 115.11 205.48 115.61 202.93 115.43C196.72 114.99 190.51 114.49 184.33 113.74C176.76 112.82 169.5 110.59 162.5 107.59C152.96 103.51 143.06 102.74 132.89 104.16Z" fill="black"/>
<path d="M46.72 106.18C46.49 109.45 45.99 112.6 46.09 115.73C46.69 134.55 52.96 151.08 66.29 164.69C74.69 173.26 84.42 179.96 95.09 185.34C95.48 185.54 95.88 185.73 96.26 185.94C96.32 185.97 96.36 186.05 96.59 186.29C95.14 186.91 93.8 187.56 92.4 188.06C87.22 189.91 81.83 190.53 76.38 190.67C68.37 190.88 60.4 190.57 52.51 189.04C37.75 186.19 25.73 179.09 17.45 166.3C12.57 158.76 11.03 150.46 12.3 141.63C13.94 130.18 19.18 120.7 28.28 113.47C33.56 109.27 39.6 106.8 46.36 106.18C46.5 106.17 46.65 106.18 46.72 106.18ZM35.89 123.99C35.15 124.41 34.73 124.62 34.33 124.87C29.68 127.77 26.51 131.88 24.56 136.95C19.94 149.01 23.51 164.2 33.94 174.22C42.44 182.39 52.69 185.67 64.36 184.43C66.94 184.16 69.46 183.44 72.01 182.92C72 182.79 71.99 182.66 71.99 182.53C71.63 182.39 71.27 182.24 70.91 182.1C66.97 180.57 62.97 179.17 59.1 177.48C49.02 173.08 41.12 166.24 36.24 156.24C33.06 149.72 31.58 142.84 32.48 135.55C32.97 131.64 34.14 127.93 35.89 123.99Z" fill="black"/>
<path d="M115.85 34.18C115.85 36.99 115.59 39.61 115.9 42.16C116.8 49.52 120.9 54.7 127.45 58.02C132.76 60.72 138.48 61.96 144.32 62.79C149.93 63.58 155.55 63.82 161.13 62.56C167.6 61.09 172.65 57.74 175.47 51.28C176.26 51.73 177.08 52.12 177.81 52.62C186.36 58.46 192.47 66.2 195.91 76C196.95 78.97 197.99 81.94 199.13 85.21C197.23 85.39 195.42 85.74 193.63 85.69C186.8 85.5 179.97 85.26 173.15 84.89C160.7 84.22 148.25 83.52 135.82 82.67C129.19 82.22 122.7 80.92 116.38 78.75C107.45 75.69 101.87 69.45 98.73 60.79C97.14 56.4 96.49 51.86 97.4 47.23C98.83 39.92 104.2 35.23 111.81 34.5C113.06 34.36 114.33 34.29 115.85 34.18ZM107.87 55.99C107.77 56.05 107.67 56.1 107.58 56.16C108.53 58.73 109.42 61.32 110.45 63.85C112.07 67.84 114.92 70.68 118.85 72.47C123.43 74.56 128.26 75.54 133.25 75.73C137.32 75.89 141.25 74.84 145.19 73.96C149.08 73.08 152.96 72 157.01 72.4C158.28 72.53 159.52 72.87 160.78 73.11C160.83 73 160.89 72.89 160.94 72.78C159.39 72.01 157.91 71.05 156.28 70.52C151.83 69.07 147.25 69.53 142.73 70.15C136.94 70.94 131.19 71.08 125.46 69.76C121.7 68.89 117.9 68.05 115.08 65.19C113.49 63.58 112.22 61.66 110.82 59.87C109.83 58.58 108.85 57.28 107.87 55.99Z" fill="black"/>
<path d="M119.17 21.21C122.78 15.82 127.62 12 134.33 10.95C140.55 9.97996 146.35 11.49 151.75 14.46C161.75 19.97 168.84 27.99 172.21 39.05C173.29 42.61 173.57 46.25 173.11 49.96C172.41 55.65 168.7 59.56 162.43 61.11C158.15 62.16 153.81 62.23 149.45 61.84C143.87 61.34 138.34 60.57 133.01 58.73C128.71 57.25 124.81 55.12 121.89 51.53C118.52 47.4 117.34 42.53 117.46 37.31C117.51 35.2 118.75 34.16 120.91 34.25C124.21 34.38 127.36 33.89 130.31 32.34C134.71 30.02 135.7 24.5 132.32 20.8C130.44 18.75 127.95 18.46 125.45 19.03C123.3 19.53 121.26 20.47 119.17 21.21ZM137.94 47.4C142.76 52.25 148.49 54.2 155.17 52.44C159.07 51.42 161.53 48.72 162.47 44.77C162.98 42.63 162.8 40.48 162.3 38.35C161.19 33.61 159.04 29.5 154.86 26.75C153.85 26.09 152.61 25.78 151.47 25.3C152.26 26.6 153.3 27.49 154.04 28.59C156.62 32.39 157.86 36.66 157.89 41.24C157.92 45.23 155.96 47.67 152.06 48.61C150.83 48.91 149.54 49.05 148.27 49.09C144.72 49.23 141.3 48.52 137.94 47.4Z" fill="black"/>
<path d="M239.91 166.32C239.13 169.53 238.4 172.75 237.57 175.95C229.2 208.42 220.81 240.89 212.46 273.36C212.23 274.26 211.76 274.81 210.99 275.24C208.36 276.7 205.45 277.25 202.55 277.82C201.66 278 200.76 278.12 199.68 278.3C200.06 276.42 200.4 274.67 200.77 272.93C207.63 240.43 214.48 207.92 221.37 175.42C221.47 174.97 221.86 174.34 222.25 174.22C228.45 172.41 234.31 169.86 239.91 166.32Z" fill="black"/>
<path d="M161.95 281.97C162.44 278.02 162.9 274.21 163.38 270.41C164.46 261.73 165.55 253.04 166.64 244.36C167.73 235.68 168.81 227 169.89 218.31C170.81 210.94 171.74 203.57 172.62 196.19C172.74 195.15 173.06 194.61 174.15 194.34C179.41 193.04 184.44 191.14 189.03 188.22C189.19 188.12 189.38 188.06 189.65 187.93C188.97 192.73 188.3 197.44 187.63 202.14C186.31 211.43 184.99 220.73 183.67 230.02C182.2 240.38 180.72 250.74 179.25 261.11C178.33 267.56 177.4 274 176.5 280.45C176.42 281.03 176.34 281.41 175.62 281.44C171.31 281.62 167 281.83 162.69 282.03C162.5 282.04 162.31 282 161.95 281.97Z" fill="black"/>
<path d="M107.42 281.23C105.5 250.27 103.58 219.43 101.66 188.46C102.14 188.62 102.51 188.75 102.88 188.87C107.89 190.6 112.89 192.36 117.93 194.01C118.79 194.29 119.03 194.63 119.02 195.48C118.84 207.75 118.69 220.01 118.52 232.28C118.39 241.63 118.25 250.98 118.12 260.33C118.03 267 117.96 273.68 117.87 280.35C117.86 280.78 117.79 281.21 117.73 281.77C114.26 281.58 110.89 281.41 107.42 281.23Z" fill="black"/>
<path d="M154.54 282.14C150.89 282.14 147.35 282.14 143.63 282.14C145.12 254.01 146.61 225.91 148.09 197.9C153.85 197.4 159.46 196.91 165.23 196.41C161.68 224.87 158.12 253.43 154.54 282.14Z" fill="black"/>
<path d="M198.53 177.66C203.63 177.2 208.56 176.76 213.64 176.3C213.57 176.74 213.51 177.26 213.4 177.78C206.32 211.34 199.24 244.89 192.19 278.45C191.99 279.41 191.65 279.77 190.68 279.86C188.47 280.07 186.27 280.41 183.87 280.73C188.77 246.24 193.65 211.93 198.53 177.66Z" fill="black"/>
<path d="M77.96 191.97C83.45 191.24 88.89 190.51 94.39 189.78C96.26 219.82 98.14 250.16 100.04 280.66C98.04 280.48 96.15 280.35 94.27 280.12C91.43 279.78 91.44 279.76 91 276.94C87.92 256.92 84.83 236.91 81.75 216.89C80.49 208.68 79.24 200.46 77.99 192.25C77.96 192.1 77.96 191.95 77.96 191.97Z" fill="black"/>
<path d="M126.35 196.15C131.13 196.72 135.84 197.29 140.73 197.88C139.25 225.85 137.76 253.95 136.27 282C132.52 282 128.9 282 125.15 282C125.56 253.26 125.96 224.66 126.35 196.15Z" fill="black"/>
<path d="M55.48 190.99C58.9 191.15 62.17 191.31 65.43 191.46C66.83 191.52 68.22 191.56 69.62 191.59C70.23 191.6 70.52 191.84 70.61 192.49C72.12 202.48 73.65 212.47 75.19 222.46C76.9 233.63 78.62 244.81 80.34 255.98C81.49 263.44 82.64 270.9 83.79 278.36C83.81 278.47 83.77 278.59 83.75 278.87C81.88 278.6 80.04 278.34 78.21 278.06C77.03 277.88 75.85 277.6 74.67 277.47C73.91 277.38 73.62 277.07 73.46 276.31C71.36 266.27 69.21 256.23 67.09 246.19C63.28 228.14 59.47 210.09 55.66 192.05C55.6 191.73 55.55 191.41 55.48 190.99Z" fill="black"/>
<path d="M65.62 276.15C63.86 275.54 62.05 275.04 60.37 274.27C59.73 273.97 59.12 273.11 58.93 272.39C51.78 245.51 44.67 218.62 37.56 191.72C37.11 190.03 36.68 188.34 36.18 186.41C37.06 186.75 37.72 187.07 38.42 187.28C41.1 188.06 43.78 188.85 46.49 189.53C47.36 189.75 47.81 190.05 48.01 191C50.09 201.05 52.21 211.08 54.33 221.12C57.56 236.39 60.8 251.66 64.03 266.93C64.66 269.89 65.27 272.85 65.89 275.8C65.8 275.92 65.71 276.04 65.62 276.15Z" fill="black"/>
</svg>
