<svg width="1080" height="1080" viewBox="0 0 1080 1080" fill="none" xmlns="http://www.w3.org/2000/svg">
<path d="M809.3 738C803.2 735.6 799.3 730.8 795.8 725.5C790.1 716.8 785.8 707.3 781.9 697.7C774.7 680 769.1 661.8 764.2 643.3C757.3 617.1 750 591 741.6 565.3C739.7 559.5 737.4 553.7 735.3 547.9C733.2 542.1 729.1 538.1 723.8 535.2C719 532.5 713.8 531 708.4 530.3C701.5 529.3 694.7 529.8 687.8 530.4C679 531.3 670.1 532.1 661.3 532.6C649.6 533.3 637.8 533.9 626.1 534.4C616 534.8 605.8 534.9 595.6 535.2C583 535.6 570.5 536.2 557.9 536.3C536.4 536.6 514.9 536.8 493.4 536.7C479.6 536.6 465.7 536.1 451.9 535.4C439 534.7 426.2 533.6 413.4 532.6C410 532.3 406.6 531.5 403.2 530.9C391.5 529.1 379.8 528.6 368.2 531.2C367.1 531.4 366 531.8 365 532.2C360.4 533.8 356.9 536.6 355.1 541.3C351 552.1 346.7 562.7 342.7 573.5C333.5 598.3 324.6 623.2 315.2 647.9C308.5 665.4 301.9 683 294.1 700.1C290.5 707.9 286.8 715.6 282 722.7C280.5 724.9 278.9 726.9 277.1 728.9C276 730.2 274.7 731.2 273.4 732.3C271 734.3 268.7 734.6 265.7 732.8C255.7 726.8 245.3 721.5 234.4 717.2C229.7 715.3 225 713.8 219.9 713.2C209.6 712 201.2 707.1 194.1 699.6C189 694.2 185.6 687.8 182.9 681C178.3 669.6 175.7 657.7 174.6 645.4C173.4 632.1 172.8 618.8 172.5 605.4C172.4 603.1 172.3 600.8 172.2 598.5C172.2 598 171.9 597.5 171.8 596.9C171.8 584.4 171.8 572 171.8 559.5C172.3 556.5 172.8 553.6 173.2 550.6C174.6 538.8 175.8 526.9 177.3 515.1C178.8 503 180.3 491 182 479C183.5 468.1 185.2 457.2 187.7 446.4C191.5 429.7 195 412.9 198.8 396.1C202.3 380.4 206.1 364.7 212.2 349.7C219.5 332 226.3 314 234.7 296.8C240.8 284.5 247.5 272.5 255.6 261.3C265 248.3 277.1 238.9 292 233C306.7 227.2 321.9 223.7 337.5 221.7C346.1 220.6 354.8 220.1 363.5 219.2C364.4 219.1 365.4 218.9 366.3 218.7C368.7 218.7 371.1 218.7 373.5 218.7C374.3 218.9 375 219.1 375.8 219.2C384 220.4 390.9 223.7 395.5 230.8C395.7 231.1 396 231.4 396.1 231.6C397.7 231.9 398.4 231.2 398.8 229.8C399.7 226.6 401.9 224.4 405.1 223.4C407 222.8 409 222.6 411 222.4C413.1 222.2 415.3 222.5 417.5 222.4C431.1 221.9 444.6 221.1 458.2 220.7C480.7 220 503.2 219.6 525.8 219C526.6 219 527.3 218.8 528.1 218.7C540.4 218.7 552.7 218.7 565.1 218.7C566 218.8 567 219 567.9 219C579.3 219.3 590.8 219.4 602.2 219.8C614.6 220.3 626.9 221.1 639.3 222C646.6 222.5 653.9 223.4 661.3 224.1C669.5 225 677.7 226 685.8 226.8C688.8 227.1 690.8 228.5 691.8 231.2C692.3 232.4 692.6 233.9 692.5 235.2C692.4 237 693.2 238 694.9 238.5C695.5 237.3 696 236.1 696.6 235C699.8 229 704.7 225 711.2 223.1C714.8 222.1 718.6 221.7 722.4 222.2C728.3 222.9 734.1 223.6 740 224.6C754.6 227 769.1 229.5 783.7 232.2C789 233.1 794.2 234 799.3 236C811.9 240.9 822.3 248.4 830 259.6C832.3 262.9 834.6 266.2 836.7 269.5C862.6 310.6 879.7 355.2 889.1 402.8C891.8 416.2 893.9 429.7 895.9 443.2C898 457.6 899.8 472 901.5 486.5C902.9 498.2 904 510 905.1 521.8C906.3 534 907.6 546.3 907.5 558.6C907.5 559.2 907.7 559.8 907.8 560.4C907.8 582 907.8 603.6 907.8 625.2C907.7 626.2 907.4 627.2 907.4 628.2C907.4 642 906.6 655.8 905.3 669.6C904.7 675.6 903.7 681.5 901.4 687.1C894.6 704 882.6 714.6 864.2 717.1C858.5 717.9 852.8 717.4 848.6 712.3C847.9 712.6 847.1 712.9 846.4 713.3C836.2 718.3 826.5 724.2 817.2 730.6C815.2 732 814.1 733.4 814.7 735.8C814.7 735.9 814.6 736.1 814.6 736.2C813.8 736.8 812.9 737.4 812.1 738C811.2 738 810.2 738 809.3 738ZM392.8 238.7C392.6 238.5 392.5 238.4 392.4 238.3C392.2 237.8 391.9 237.3 391.7 236.8C389.6 232 386 228.8 381.2 226.9C377.9 225.6 374.4 225 370.9 225.1C368.1 225.2 365.3 225.5 362.5 225.6C350.7 226 338.9 227.4 327.3 229.6C315.7 231.7 304.4 234.8 293.5 239.2C280.4 244.5 269.6 252.6 261.3 264.1C259.7 266.4 258 268.6 256.4 270.9C247.9 283.6 240.8 297.2 234.8 311.2C228.5 325.9 222.7 340.8 216.5 355.5C213.4 362.8 211 370.3 209.3 378.1C205.7 393.6 202.3 409.1 198.8 424.6C196.7 433.8 194.4 442.9 192.7 452.2C190.7 462.5 189.1 472.8 187.6 483.2C186.1 493.8 184.8 504.4 183.5 515C182.4 524 181.4 532.9 180.3 541.9C179.7 547.6 178.8 553.3 178.6 559.1C178.3 570.8 178.4 582.4 178.5 594.1C178.6 610.2 179.1 626.4 180.5 642.5C181.3 652.2 182.8 661.7 185.8 670.9C187.9 677.5 190.3 683.9 194.1 689.7C199.6 698.2 207.1 704.2 217 706.7C219.5 707.3 222.2 707.4 224.8 707.9C226.3 708.2 227.4 707.8 228.4 706.8C232.2 703.2 235 699 236.9 694.1C240.6 684.3 244 674.4 246.3 664.2C248.6 654.4 250.5 644.5 253.4 634.9C259.2 615.2 265.4 595.6 271.6 576.1C276.7 560.1 281.7 544.1 288 528.6C300.7 497.5 314.7 467 331.2 437.7C338.9 424 347.1 410.7 356.9 398.4C362.4 391.4 368.5 384.9 375.7 379.7C377.4 378.5 379 377.1 380.5 375.7C395.2 362.7 405.2 346.9 408.8 327.4C410 321 410.2 314.5 408.9 308.1C407 298.5 404.8 288.9 402.8 279.3C400.1 266.2 397.4 253 394.7 239.9C394.6 239.6 394.5 239.3 394.4 238.9C393.8 238.7 393.3 238.7 392.8 238.7ZM695.2 248.5C695 249.1 694.8 249.5 694.7 249.8C692.7 257.4 690.7 264.9 688.9 272.5C685.5 286.6 683.3 300.9 681.2 315.2C680.6 319.1 680.4 322.9 681 326.9C684 345.8 693.1 361 708.8 372.2C712 374.5 715 377.1 717.8 379.7C722.9 384.5 727.2 389.9 731.3 395.6C747.5 418 760.6 442.1 771.8 467.3C782.5 491.4 791.9 516 801 540.8C813.3 574.4 824.5 608.4 833.1 643.2C836.8 658.2 840 673.2 842.1 688.5C842.8 694 844.7 699.2 846.9 704.3C847.3 705.3 847.9 706 849.1 706.1C851.2 706.3 852.8 707.3 854.1 709C854.7 709.7 855.7 710.3 856.7 710.6C859.6 711.5 862.6 711.4 865.5 710.8C874.4 709.3 881.9 705 887.8 698.3C894.6 690.6 898.1 681.4 899 671.3C900.1 658.8 901 646.3 901.4 633.7C901.9 617.3 902 600.9 902 584.5C902 568 901.9 551.4 900.2 534.9C898.9 522.3 898 509.7 896.6 497.2C894.9 482 893 466.9 891 451.8C888.8 434.6 885.9 417.5 882.4 400.5C874.5 362.1 861.2 325.7 842.5 291.3C837.3 281.8 831.7 272.6 825.5 263.8C816 250.1 802.9 242 786.6 238.9C767.1 235.2 747.6 231.7 728 229C724.2 228.5 720.4 228.5 716.5 228.3C715.6 228.3 714.7 228.6 713.6 228.8C714 231.7 714.3 234.5 714.7 237.2C714.5 237.2 714.3 237.3 714.1 237.3C713.7 234.6 713.2 231.9 712.7 228.9C703.3 232.2 699.8 239.4 698.8 248.3C697.6 248.5 696.5 248.5 695.2 248.5ZM685.8 233.3C682.9 233.1 680.2 232.9 677.5 232.6C672.1 232 666.7 231.1 661.3 230.6C649.8 229.5 638.2 228.2 626.7 227.6C609.6 226.6 592.5 225.8 575.4 225.4C546.1 224.8 516.7 225.1 487.4 226.1C474.8 226.5 462.1 227 449.5 227.4C436.9 227.8 424.2 228.2 411.6 228.6C410.3 228.6 409 228.8 407.8 229C405.1 229.6 404 231.4 404.4 234.1C404.5 234.8 404.5 235.5 404.6 236.2C403.9 236.5 403.3 236.7 402.6 236.9C402.7 237.5 402.7 238.1 402.8 238.6C407.5 262.8 412.3 287 417.1 311.2C417.8 314.9 418.3 318.7 419.4 322.2C421.4 328.5 424.9 334.1 429.6 338.8C433.3 342.6 437.5 345.6 442.4 347.5C446.8 349.2 451.3 350.1 456 349.2C457.6 348.9 459.3 348.4 460.9 348.3C465.5 348 470.2 347.6 474.8 347.6C491.8 347.5 508.7 347.5 525.7 347.7C547.4 348 569 348.4 590.7 348.9C606.5 349.3 622.4 349.8 638.2 350.2C639.2 350.2 640.3 350.2 641.3 349.9C646.6 348.2 651.6 346 656.3 343C663.3 338.4 668 332.2 670.2 324.1C671.3 319.9 672.6 315.7 673.6 311.4C676.4 299.3 679.1 287.3 681.7 275.2C683.6 266.3 685.4 257.4 687.2 248.4C687.2 248.2 687.2 248 687.2 247.7C686.6 247.5 686.1 247.3 685.4 247.1C685.6 244.8 685.9 242.5 686.1 240.2C686.1 238 687 235.7 685.8 233.3ZM741.4 546.4C741.8 547.6 742 548.2 742.2 548.9C743.4 552.4 744.8 555.8 745.9 559.3C755.1 587 762.8 615.1 770.3 643.2C775.4 662.3 781.3 681.1 789 699.3C792.4 707.4 796.1 715.4 801.1 722.7C802.7 725.1 804.7 727.2 806.5 729.4C806.9 729.8 807.4 730.1 808.2 730.6C808 729 807.9 727.8 807.8 726.6C807.8 726 807.6 725 807.9 724.8C809.1 723.7 808.6 722.7 808.3 721.5C805.2 709.8 802.2 698 799.1 686.3C792 660.3 784.5 634.5 775.6 609.1C771.6 597.8 767.4 586.6 762.2 575.8C759.2 569.6 756 563.5 751 558.6C750.8 558.4 750.5 558.1 750.4 557.8C748.6 553.9 745.6 551 742.9 547.9C742.7 547.4 742.2 547.1 741.4 546.4ZM268.6 727.7C269.4 727.4 269.9 727.4 270.1 727.2C271.2 726.3 272.4 725.4 273.2 724.2C275.8 720.7 278.4 717.1 280.7 713.4C285.7 705 289.6 696.1 293.3 687C304.8 658.8 315.5 630.4 326 601.8C333.5 581.2 341.4 560.8 349.1 540.3C349.2 540 349.3 539.7 349.3 539.3C348.3 540 347.6 540.9 346.9 541.8C343.4 546.8 339.7 551.6 336.5 556.7C324.2 575.8 314.2 596.2 305.3 617.1C290.3 652.1 278.8 688.3 269.1 725.1C268.8 725.9 268.8 726.6 268.6 727.7ZM666.3 465.8C695.8 465.7 719.3 442.6 719.9 413.6C720.5 382.9 696 360.1 668.2 359.3C638.8 358.5 614 381.8 613.4 411.5C612.9 441.3 636.4 465.4 666.3 465.8ZM476.4 412.8C476.5 383.5 452.6 359.5 423.4 359.5C393.9 359.4 370.1 383.1 369.9 412.4C369.7 441.3 393 465.9 423.1 465.9C452.5 466 476.3 442.3 476.4 412.8ZM543.7 522.6C530.9 522.6 518.1 522.6 505.3 522.6C504.5 522.6 503.7 522.6 502.9 522.7C500.9 523 499.4 524.7 499.3 526.6C499.2 528.5 500.5 530.4 502.4 530.9C503.2 531.1 504.1 531.2 505 531.2C530.8 531.2 556.7 531.2 582.5 531.2C583.4 531.2 584.3 531.1 585.1 530.9C587.1 530.4 588.2 528.7 588.1 526.5C588 524.6 586.6 523 584.7 522.7C583.9 522.6 583.1 522.6 582.3 522.6C569.4 522.6 556.6 522.6 543.7 522.6ZM544.4 432.9C544.5 432.5 544.5 432.2 544.5 431.9C544.7 423.1 545 414.3 545.2 405.5C545.2 404.9 545.1 404.2 545.3 403.6C545.4 403.2 546 402.7 546.2 402.8C546.6 402.9 547.2 403.3 547.3 403.8C547.5 404.3 547.2 404.9 547.3 405.5C547.4 408.7 547.5 411.9 547.8 415C547.9 416.4 548.8 417.5 550.4 417.8C552.1 418 553.6 417.3 554.3 415.8C554.9 414.4 555.5 413 555.8 411.5C556.7 407.7 555.4 404.5 552.2 402.3C548.9 400 545.2 398.4 541.3 397.5C540.1 397.2 538.9 396.7 537.6 397.3C537.5 397.7 537.4 397.9 537.4 398.1C537.4 407.7 537.4 417.3 537.4 426.9C537.4 427.7 537.6 428.5 537.8 429.3C538.9 432.2 540.9 433.4 544.4 432.9ZM542 459.1C541.6 459.1 541.2 459.1 540.8 459.1C537.1 459.1 533.4 459 529.8 459.2C526.9 459.3 524.8 461.7 524.6 464.5C524.5 467.4 526.3 469.8 529.1 470.4C530 470.6 530.8 470.6 531.7 470.6C538.4 470.6 545.1 470.6 551.8 470.6C552.8 470.6 553.7 470.5 554.6 470.3C557.9 469.5 559.8 466.1 558.6 462.9C557.8 460.5 555.9 459.1 553.1 459.1C549.5 459 545.7 459.1 542 459.1ZM558.6 424C558 425.4 556.6 425.3 555.4 425.5C553.3 425.9 551.1 426.2 549.1 426.7C546.8 427.2 546.2 428.2 546.8 430.5C547.1 431.7 547.7 432.1 548.9 431.8C549.7 431.6 550.6 431.2 551.4 430.9C554.9 429.6 558.3 427.9 562.2 427.9C563.7 427.9 564.8 426.9 565.6 425.5C566.5 423.8 566.4 423.1 564.6 422.3C562.1 421.2 559.4 420.3 556.7 419.4C556.8 419.1 557 418.5 557.1 417.9C557.2 417.3 557.3 416.7 557.4 416C554.7 418.5 551.9 420.2 548.7 421.3C548.4 421.4 548.1 421.6 547.9 421.8C546.8 422.7 546.8 423.3 547.8 425C548.8 424.7 549.9 424.4 550.9 424.1C552.8 423.7 554.6 423.2 556.5 422.9C557.2 422.7 558.3 422.7 558.6 424ZM535.1 417.6C530.8 418.7 526.7 419.7 522.7 420.9C521.5 421.3 520.4 422.3 519.6 423.4C517.7 426.2 518.8 428.6 522.1 429.1C526.3 429.8 530.4 428.9 534.4 427.8C534.9 427.7 535.4 426.9 535.5 426.4C535.7 425.6 535.5 424.8 535.5 423.7C534.4 424 533.6 424.3 532.9 424.5C531.6 424.8 530.3 425.1 528.9 425.4C528.2 425.5 527.5 425.5 527.5 424.6C527.5 424.3 528.2 423.9 528.6 423.7C530.2 423.1 531.8 422.8 533.3 422.1C535.3 421.2 535.7 419.9 535.1 417.6ZM528.5 381.1C528.5 379 526.9 377.3 524.8 377.2C522.6 377.1 520.8 378.8 520.8 381.1C520.8 383.2 522.5 384.9 524.6 384.9C526.7 384.9 528.4 383.1 528.5 381.1ZM541.5 381.1C541.5 379 539.9 377.3 537.8 377.2C535.6 377.1 533.8 378.8 533.8 381.1C533.8 383.2 535.5 384.9 537.6 384.9C539.7 384.9 541.4 383.2 541.5 381.1ZM550.6 384.8C552.7 384.8 554.4 383.1 554.4 381C554.4 378.9 552.8 377.2 550.7 377.1C548.5 377 546.7 378.8 546.7 381C546.8 383.1 548.6 384.8 550.6 384.8ZM516.9 364.9C514.9 364.9 513.1 366.6 513.1 368.7C513.1 370.8 514.7 372.5 516.8 372.6C519 372.7 520.8 370.9 520.7 368.7C520.8 366.6 519 364.9 516.9 364.9ZM529.9 364.9C527.9 364.9 526.1 366.7 526.1 368.8C526.1 371 527.9 372.7 530.1 372.6C532.2 372.5 533.8 370.8 533.7 368.7C533.7 366.5 532 364.8 529.9 364.9ZM546.8 368.8C546.8 366.7 545.2 364.9 543.1 364.9C541 364.8 539.1 366.7 539.1 368.8C539.1 370.9 540.9 372.6 543 372.6C545.1 372.6 546.8 371 546.8 368.8ZM567.5 381C567.5 378.8 565.9 377.2 563.7 377.2C561.6 377.2 559.9 378.9 559.8 380.9C559.8 383 561.6 384.9 563.8 384.8C565.9 384.8 567.5 383.1 567.5 381ZM571.2 364.9C569.1 365 567.4 366.8 567.4 368.8C567.4 371 569.3 372.7 571.5 372.6C573.6 372.5 575.2 370.8 575.1 368.6C575 366.5 573.3 364.8 571.2 364.9ZM561.3 368.8C561.3 366.7 559.6 365 557.6 364.9C555.5 364.8 553.6 366.7 553.7 368.9C553.7 371 555.4 372.6 557.6 372.6C559.7 372.5 561.3 370.9 561.3 368.8Z" fill="black"/>
<path d="M528 218.9C527.2 219 526.5 219.2 525.7 219.2C503.2 219.8 480.7 220.2 458.1 220.9C444.5 221.3 431 222 417.4 222.6C415.2 222.7 413.1 222.5 410.9 222.6C408.9 222.7 406.9 223 405 223.6C401.8 224.6 399.6 226.8 398.7 230C398.3 231.4 397.6 232.1 396 231.8C395.9 231.6 395.6 231.3 395.4 231C390.8 223.8 383.9 220.5 375.7 219.4C374.9 219.3 374.2 219.1 373.4 218.9C425 218.9 476.5 218.9 528 218.9Z" fill="white"/>
<path d="M392.8 238.7C393.3 238.7 393.8 238.7 394.4 238.7C394.5 239.1 394.6 239.4 394.7 239.7C397.4 252.8 400.1 266 402.8 279.1C404.8 288.7 407 298.3 408.9 307.9C410.2 314.3 410 320.8 408.8 327.2C405.2 346.7 395.2 362.5 380.5 375.5C378.9 376.9 377.4 378.3 375.7 379.5C368.4 384.7 362.4 391.2 356.9 398.2C347.1 410.5 338.9 423.8 331.2 437.5C314.8 466.8 300.7 497.3 288 528.4C281.6 543.9 276.6 560 271.6 575.9C265.4 595.5 259.2 615 253.4 634.7C250.6 644.3 248.6 654.2 246.3 664C243.9 674.2 240.6 684.1 236.9 693.9C235 698.7 232.2 703 228.4 706.6C227.3 707.6 226.3 708.1 224.8 707.7C222.2 707.1 219.5 707.1 217 706.5C207 704 199.6 698 194.1 689.5C190.3 683.7 187.9 677.3 185.8 670.7C182.8 661.4 181.3 651.9 180.5 642.3C179.1 626.2 178.6 610.1 178.5 593.9C178.4 582.2 178.3 570.6 178.6 558.9C178.7 553.2 179.6 547.4 180.3 541.7C181.3 532.7 182.3 523.8 183.5 514.8C184.8 504.2 186.1 493.5 187.6 483C189.1 472.6 190.7 462.3 192.7 452C194.5 442.7 196.8 433.6 198.8 424.4C202.3 408.9 205.7 393.4 209.3 377.9C211.1 370.2 213.5 362.7 216.5 355.3C222.6 340.6 228.4 325.7 234.8 311C240.8 297 247.9 283.4 256.4 270.7C258 268.4 259.6 266.1 261.3 263.9C269.6 252.4 280.4 244.3 293.5 239C304.4 234.6 315.8 231.5 327.3 229.4C339 227.3 350.7 225.9 362.5 225.4C365.3 225.3 368.1 225 370.9 224.9C374.4 224.8 377.9 225.5 381.2 226.7C386.1 228.6 389.6 231.8 391.7 236.6C391.9 237.1 392.2 237.6 392.4 238.1C392.5 238.4 392.6 238.5 392.8 238.7ZM384 323.9C384 286.9 354.1 257 317.5 256.6C281 256.3 250.1 285.6 249.6 323C249.1 359.8 278.8 390.9 316.6 391C353.8 391.1 384 361.1 384 323.9ZM379.4 273.2C383.8 273.2 387.1 269.3 386.1 265C384.8 259.3 383.3 253.7 381.7 248.1C380.6 244.3 377 242.4 373.2 243.4C369.7 244.3 367.6 247.9 368.4 251.6C368.8 253.2 369.2 254.8 369.7 256.5C370.7 260.3 371.6 264.1 372.7 267.8C373.5 271.2 376.1 273.2 379.4 273.2ZM361.9 241C362 240.9 362.1 240.8 362.3 240.7C361 238.5 357.7 234.9 356 234.4C357.9 236.6 359.9 238.8 361.9 241ZM377 227.9C375.7 229.6 374.5 235.4 375.2 236.9C375.8 233.9 376.4 230.9 377 227.9ZM366.8 230.9C366.6 231 366.5 231 366.3 231.1C366.7 234.1 367.9 237.6 369.2 238.9C368.4 236 367.6 233.4 366.8 230.9Z" fill="white"/>
<path d="M695.2 248.5C696.4 248.5 697.5 248.5 698.7 248.5C699.7 239.5 703.1 232.4 712.6 229.1C713.1 232.1 713.5 234.8 714 237.5C714.2 237.5 714.4 237.4 714.6 237.4C714.2 234.7 713.9 231.9 713.5 229C714.6 228.8 715.5 228.5 716.4 228.5C720.2 228.7 724.1 228.7 727.9 229.2C747.5 231.9 767 235.4 786.5 239.1C802.8 242.2 815.9 250.3 825.4 264C831.6 272.9 837.2 282.1 842.4 291.5C861.1 325.9 874.4 362.3 882.3 400.7C885.8 417.7 888.6 434.8 890.9 452C892.9 467.1 894.8 482.3 896.5 497.4C897.9 509.9 898.8 522.5 900.1 535.1C901.8 551.6 901.9 568.1 901.9 584.7C901.9 601.1 901.8 617.5 901.3 633.9C900.9 646.4 900 659 898.9 671.5C898 681.6 894.6 690.8 887.7 698.5C881.7 705.2 874.3 709.5 865.4 711C862.5 711.5 859.5 711.7 856.6 710.8C855.7 710.5 854.6 710 854 709.2C852.7 707.5 851.1 706.4 849 706.3C847.8 706.2 847.2 705.5 846.8 704.5C844.6 699.4 842.8 694.2 842 688.7C839.9 673.4 836.7 658.3 833 643.4C824.4 608.6 813.1 574.7 800.9 541C791.8 516.2 782.4 491.6 771.7 467.5C760.5 442.3 747.4 418.2 731.2 395.8C727.1 390.2 722.8 384.7 717.7 379.9C714.9 377.2 711.9 374.6 708.7 372.4C693.1 361.1 684 345.9 681 327C680.4 323.1 680.6 319.2 681.2 315.3C683.3 301 685.5 286.7 688.9 272.6C690.7 265 692.8 257.4 694.7 249.9C694.8 249.5 695 249.1 695.2 248.5ZM707.7 323.9C707.9 361.9 738.4 390.9 774.6 391.2C811.5 391.4 841.9 361.5 842.3 324.8C842.6 287.4 812.6 257.5 776.2 256.8C740 256.1 708 284.8 707.7 323.9ZM714.5 273.2C717.9 273.2 720.4 271.1 721.3 267.6C722.6 262.3 723.8 257 725 251.7C725.9 247.7 723.8 244.2 719.9 243.2C716.1 242.3 712.6 244.4 711.5 248.4C710.1 253.9 708.8 259.4 707.6 264.9C706.8 269.3 710.1 273.2 714.5 273.2ZM733.8 234.8C733.7 234.7 733.5 234.5 733.4 234.4C731 236.1 727.5 239.9 726.9 241.8C729.5 239.3 731.6 237 733.8 234.8ZM720.7 239.3C720.9 239.3 721.1 239.4 721.3 239.4C722.2 236.9 722.9 234.4 723.4 231.8C723.2 231.7 723 231.7 722.8 231.6C722.2 234.2 721.5 236.7 720.7 239.3Z" fill="white"/>
<path d="M685.8 233.3C687 235.8 686.1 238.1 685.9 240.3C685.7 242.6 685.5 244.9 685.2 247.2C685.9 247.5 686.4 247.6 687 247.8C687 248 687 248.3 687 248.5C685.2 257.4 683.5 266.4 681.5 275.3C678.9 287.4 676.2 299.5 673.4 311.5C672.4 315.8 671.1 320 670 324.2C667.8 332.3 663.1 338.5 656.1 343.1C651.5 346.2 646.4 348.4 641.1 350C640.1 350.3 639.1 350.3 638 350.3C622.2 349.9 606.3 349.3 590.5 349C568.8 348.5 547.2 348.1 525.5 347.8C508.5 347.6 491.6 347.6 474.6 347.7C470 347.7 465.3 348.1 460.7 348.4C459 348.5 457.4 349 455.8 349.3C451.1 350.2 446.6 349.4 442.2 347.6C437.3 345.7 433.1 342.7 429.4 338.9C424.8 334.1 421.3 328.6 419.2 322.3C418.1 318.7 417.6 315 416.9 311.3C412.1 287.1 407.4 262.9 402.6 238.7C402.5 238.2 402.5 237.6 402.4 237C403.1 236.8 403.6 236.6 404.4 236.3C404.3 235.6 404.3 234.9 404.2 234.2C403.8 231.5 404.9 229.7 407.6 229.1C408.8 228.8 410.1 228.7 411.4 228.7C424 228.3 436.7 227.9 449.3 227.5C461.9 227.1 474.6 226.6 487.2 226.2C516.5 225.2 545.9 224.9 575.2 225.5C592.3 225.8 609.4 226.7 626.5 227.7C638.1 228.4 649.6 229.6 661.1 230.7C666.5 231.2 671.9 232.1 677.3 232.7C680.2 232.9 683 233 685.8 233.3Z" fill="white"/>
<path d="M741.4 546.4C742.2 547.1 742.7 547.4 743 547.8C745.7 550.9 748.7 553.8 750.5 557.7C750.6 558 750.9 558.2 751.1 558.5C756.1 563.4 759.2 569.5 762.3 575.7C767.5 586.5 771.8 597.7 775.7 609C784.6 634.4 792.1 660.2 799.2 686.2C802.4 697.9 805.4 709.7 808.4 721.4C808.7 722.5 809.3 723.6 808 724.7C807.7 725 807.8 725.9 807.9 726.5C808 727.7 808.1 728.9 808.3 730.5C807.5 730 806.9 729.7 806.6 729.3C804.7 727.1 802.8 725 801.2 722.6C796.2 715.3 792.5 707.3 789.1 699.2C781.4 681 775.5 662.2 770.4 643.1C762.9 614.9 755.2 586.8 746 559.2C744.8 555.7 743.5 552.3 742.3 548.8C742 548.2 741.8 547.5 741.4 546.4Z" fill="white"/>
<path d="M268.6 727.7C268.8 726.6 268.8 725.9 269 725.2C278.7 688.4 290.3 652.2 305.2 617.2C314.1 596.3 324.1 575.9 336.4 556.8C339.7 551.7 343.3 546.8 346.8 541.9C347.4 541 348.2 540.2 349.2 539.4C349.1 539.7 349.1 540.1 349 540.4C341.3 560.9 333.4 581.3 325.9 601.9C315.5 630.5 304.8 659 293.2 687.1C289.5 696.1 285.6 705 280.6 713.5C278.4 717.3 275.7 720.8 273.1 724.3C272.3 725.4 271.1 726.3 270 727.3C269.9 727.4 269.4 727.4 268.6 727.7Z" fill="white"/>
<path d="M666.3 465.8C636.4 465.4 612.9 441.3 613.4 411.5C613.9 381.8 638.8 358.5 668.2 359.3C696 360.1 720.5 382.9 719.9 413.6C719.3 442.6 695.9 465.8 666.3 465.8ZM666.4 461.9C694.6 461.9 716.8 438.9 716 411.2C715.2 383.3 691.7 362.1 664.4 363.3C637.9 364.5 616.4 386.8 617.4 414.3C618.3 441 640.2 461.8 666.4 461.9Z" fill="white"/>
<path d="M476.4 412.8C476.3 442.2 452.5 466 423.1 466C393.1 466 369.7 441.3 369.9 412.5C370.1 383.1 393.9 359.5 423.4 359.6C452.6 359.6 476.5 383.6 476.4 412.8ZM472.5 412.9C472.6 385.7 450.6 363.5 423.7 363.4C396.2 363.3 374.1 385.2 373.9 412.5C373.7 438.8 394.9 462 423.1 462.1C450.3 462.2 472.4 440.1 472.5 412.9Z" fill="white"/>
<path d="M543.7 522.6C556.6 522.6 569.5 522.6 582.3 522.6C583.1 522.6 583.9 522.6 584.7 522.7C586.6 523 588 524.6 588.1 526.5C588.3 528.6 587.1 530.3 585.1 530.9C584.3 531.1 583.4 531.2 582.5 531.2C556.7 531.2 530.8 531.2 505 531.2C504.1 531.2 503.2 531.1 502.4 530.9C500.4 530.4 499.1 528.6 499.3 526.6C499.4 524.6 500.9 523 502.9 522.7C503.7 522.6 504.5 522.6 505.3 522.6C518.1 522.6 530.9 522.6 543.7 522.6Z" fill="white"/>
<path d="M544.4 432.9C540.9 433.4 538.9 432.1 538 429.1C537.8 428.3 537.6 427.5 537.6 426.7C537.6 417.1 537.6 407.5 537.6 397.9C537.6 397.7 537.7 397.4 537.8 397.1C539 396.6 540.3 397 541.5 397.3C545.4 398.2 549.1 399.9 552.4 402.1C555.6 404.3 556.9 407.4 556 411.3C555.7 412.8 555.1 414.2 554.5 415.6C553.8 417.2 552.2 417.9 550.6 417.6C549 417.4 548.2 416.2 548 414.8C547.7 411.6 547.6 408.4 547.5 405.3C547.5 404.7 547.7 404.1 547.5 403.6C547.3 403.2 546.8 402.8 546.4 402.6C546.2 402.5 545.6 403.1 545.5 403.4C545.3 404 545.4 404.7 545.4 405.3C545.2 414.1 544.9 422.9 544.7 431.7C544.5 432.2 544.5 432.5 544.4 432.9Z" fill="white"/>
<path d="M542 459.1C545.8 459.1 549.5 459 553.3 459.1C556.1 459.2 558 460.6 558.8 462.9C559.9 466.1 558.1 469.5 554.8 470.3C553.9 470.5 552.9 470.6 552 470.6C545.3 470.6 538.6 470.6 531.9 470.6C531 470.6 530.1 470.5 529.3 470.4C526.5 469.8 524.6 467.4 524.8 464.5C524.9 461.6 527 459.3 530 459.2C533.7 459 537.3 459.1 541 459.1C541.2 459.1 541.6 459.1 542 459.1Z" fill="white"/>
<path d="M558.6 424C558.3 422.7 557.2 422.7 556.3 422.8C554.4 423.1 552.6 423.5 550.7 424C549.6 424.3 548.6 424.6 547.6 424.9C546.6 423.2 546.6 422.6 547.7 421.7C547.9 421.5 548.2 421.3 548.5 421.2C551.8 420.2 554.5 418.4 557.2 415.9C557.1 416.5 557.1 417.1 556.9 417.8C556.8 418.4 556.5 419 556.5 419.3C559.2 420.3 561.8 421.1 564.4 422.2C566.2 423 566.3 423.7 565.4 425.4C564.7 426.8 563.6 427.8 562 427.8C558.1 427.8 554.7 429.4 551.2 430.8C550.4 431.1 549.6 431.5 548.7 431.7C547.5 432 546.9 431.6 546.6 430.4C546.1 428.1 546.6 427.1 548.9 426.6C551 426.1 553.1 425.9 555.2 425.4C556.6 425.3 558 425.4 558.6 424Z" fill="white"/>
<path d="M535.1 417.6C535.7 419.8 535.3 421.2 533.4 422.1C531.9 422.8 530.2 423.1 528.7 423.7C528.3 423.9 527.6 424.3 527.6 424.6C527.5 425.5 528.3 425.5 529 425.4C530.3 425.1 531.7 424.8 533 424.5C533.8 424.3 534.5 424.1 535.6 423.7C535.6 424.8 535.8 425.6 535.6 426.4C535.5 426.9 535 427.6 534.5 427.8C530.5 428.9 526.4 429.8 522.2 429.1C518.9 428.6 517.8 426.1 519.7 423.4C520.4 422.3 521.6 421.3 522.8 420.9C526.8 419.7 530.9 418.7 535.1 417.6Z" fill="white"/>
<path d="M528.5 381.1C528.5 383.2 526.7 384.9 524.6 384.9C522.5 384.9 520.8 383.2 520.8 381.1C520.8 378.9 522.5 377.2 524.8 377.2C526.9 377.2 528.5 378.9 528.5 381.1Z" fill="white"/>
<path d="M541.5 381.1C541.5 383.2 539.7 384.9 537.6 384.9C535.5 384.9 533.8 383.2 533.8 381.1C533.8 378.9 535.5 377.2 537.8 377.2C539.9 377.2 541.5 378.9 541.5 381.1Z" fill="white"/>
<path d="M550.6 384.8C548.5 384.8 546.8 383.1 546.7 381C546.7 378.8 548.5 377.1 550.7 377.1C552.8 377.2 554.4 378.8 554.4 381C554.4 383.2 552.7 384.9 550.6 384.8Z" fill="white"/>
<path d="M516.9 364.9C519 364.9 520.7 366.6 520.7 368.7C520.7 370.9 519 372.6 516.8 372.6C514.7 372.5 513 370.9 513.1 368.7C513.1 366.6 514.9 364.9 516.9 364.9Z" fill="white"/>
<path d="M529.9 364.9C532 364.9 533.7 366.6 533.8 368.6C533.9 370.8 532.3 372.4 530.2 372.5C528 372.6 526.2 370.9 526.2 368.7C526.1 366.7 527.9 364.9 529.9 364.9Z" fill="white"/>
<path d="M546.8 368.8C546.8 371 545.1 372.6 543 372.6C540.9 372.6 539.2 370.9 539.1 368.8C539.1 366.7 541 364.8 543.1 364.9C545.2 364.9 546.8 366.7 546.8 368.8Z" fill="white"/>
<path d="M567.5 381C567.5 383.1 565.9 384.8 563.8 384.9C561.7 384.9 559.8 383.1 559.8 381C559.8 378.9 561.6 377.3 563.7 377.3C565.8 377.2 567.4 378.8 567.5 381Z" fill="white"/>
<path d="M571.2 364.9C573.3 364.8 575 366.5 575.1 368.6C575.2 370.8 573.7 372.5 571.5 372.6C569.3 372.7 567.4 371 567.4 368.8C567.4 366.7 569.2 364.9 571.2 364.9Z" fill="white"/>
<path d="M561.3 368.8C561.3 370.9 559.7 372.6 557.5 372.6C555.4 372.6 553.7 371 553.6 368.9C553.6 366.7 555.4 364.9 557.5 364.9C559.7 364.9 561.4 366.7 561.3 368.8Z" fill="white"/>
<path d="M384 323.9C384 361 353.8 391.1 316.6 391C278.8 390.9 249.1 359.8 249.6 323C250.1 285.6 281 256.3 317.5 256.6C354.1 257 384 287 384 323.9ZM252.4 323.8C252.1 358.7 280.7 388.1 316.5 388.2C352.4 388.3 381.2 359.6 381.2 324C381.2 288.3 352.4 259.5 316.7 259.4C280.5 259.5 252.1 289.2 252.4 323.8Z" fill="black"/>
<path d="M379.4 273.2C376.1 273.2 373.6 271.2 372.6 267.8C371.6 264 370.6 260.2 369.6 256.5C369.2 254.9 368.7 253.3 368.3 251.6C367.5 247.9 369.6 244.3 373.1 243.4C376.8 242.4 380.5 244.3 381.6 248.1C383.2 253.7 384.7 259.3 386 265C387.1 269.2 383.8 273.2 379.4 273.2Z" fill="black"/>
<path d="M361.9 241C359.9 238.8 358 236.6 356 234.3C357.7 234.8 361 238.4 362.3 240.6C362.1 240.8 362 240.9 361.9 241Z" fill="black"/>
<path d="M377 227.9C376.4 230.9 375.8 233.9 375.2 236.9C374.5 235.3 375.6 229.6 377 227.9Z" fill="black"/>
<path d="M366.8 230.9C367.6 233.4 368.4 235.9 369.3 238.9C367.9 237.6 366.7 234.1 366.4 231.1C366.5 231 366.7 231 366.8 230.9Z" fill="black"/>
<path d="M707.7 323.9C708 284.8 740 256.1 776.1 256.8C812.5 257.4 842.5 287.3 842.2 324.8C841.9 361.5 811.4 391.5 774.5 391.2C738.4 390.9 707.9 361.9 707.7 323.9ZM775 259.5C740.4 259.3 710.8 287.2 710.5 323.3C710.2 360.2 740 387.7 773.8 388.3C808.2 388.9 839.2 361.5 839.4 324.1C839.7 288.6 810.7 259.6 775 259.5Z" fill="black"/>
<path d="M714.5 273.2C710.1 273.2 706.8 269.3 707.7 265C708.9 259.5 710.2 253.9 711.6 248.5C712.6 244.5 716.2 242.3 720 243.3C723.8 244.3 726 247.8 725.1 251.8C723.9 257.1 722.7 262.4 721.4 267.7C720.5 271.1 717.9 273.2 714.5 273.2Z" fill="black"/>
<path d="M733.8 234.8C731.6 237 729.5 239.2 726.9 241.8C727.5 239.9 731 236.1 733.4 234.4C733.5 234.6 733.6 234.7 733.8 234.8Z" fill="black"/>
<path d="M720.7 239.3C721.4 236.8 722.1 234.2 722.9 231.7C723.1 231.8 723.3 231.8 723.5 231.9C723 234.5 722.3 237 721.4 239.5C721.2 239.4 720.9 239.3 720.7 239.3Z" fill="black"/>
<path d="M666.4 461.9C640.1 461.8 618.3 441 617.3 414.3C616.3 386.8 637.8 364.5 664.3 363.3C691.7 362 715.1 383.3 715.9 411.2C716.8 438.9 694.6 461.9 666.4 461.9ZM666.7 386.1C652.1 386.1 640.3 397.8 640.3 412.4C640.3 427.1 652.1 439 666.7 439C681.3 439 693.2 427.1 693.2 412.4C693.1 397.9 681.3 386.2 666.7 386.1Z" fill="black"/>
<path d="M472.5 412.9C472.4 440.1 450.3 462.2 423.1 462.1C394.9 462 373.6 438.7 373.9 412.5C374.1 385.3 396.2 363.3 423.7 363.4C450.6 363.5 472.5 385.7 472.5 412.9ZM423.1 439.1C437.8 439.1 449.7 427.3 449.6 412.6C449.6 398 437.8 386.2 423.2 386.2C408.5 386.2 396.7 398 396.7 412.7C396.7 427.4 408.5 439.1 423.1 439.1Z" fill="black"/>
<path d="M252.4 323.8C252.1 289.2 280.5 259.4 316.7 259.4C352.4 259.4 381.2 288.3 381.2 324C381.2 359.6 352.3 388.3 316.5 388.2C280.7 388.2 252.1 358.7 252.4 323.8ZM337 300.4C337 299.3 337 298.5 337 297.7C337 292.3 337 286.8 337 281.4C337 278.5 336.9 278.4 334.1 278.4C322.6 278.4 311.1 278.4 299.5 278.4C296.9 278.4 296.6 278.6 296.6 281.3C296.6 286.8 296.6 292.3 296.6 297.8C296.6 298.6 296.5 299.5 296.5 300.4C295.4 300.4 294.6 300.4 293.8 300.4C288.4 300.4 282.9 300.4 277.5 300.4C274.8 300.4 274.6 300.6 274.6 303.2C274.6 314.7 274.6 326.2 274.6 337.7C274.6 340.5 274.8 340.6 277.7 340.6C283.1 340.6 288.6 340.6 294 340.6C294.8 340.6 295.7 340.7 296.6 340.7C296.6 341.8 296.6 342.7 296.6 343.6C296.6 349.3 296.6 355 296.6 360.6C296.6 363 296.8 363.2 299.2 363.2C310.9 363.2 322.6 363.2 334.2 363.2C336.7 363.2 336.9 363 336.9 360.5C336.9 354.7 336.9 349 336.9 343.2C336.9 342.4 337 341.6 337 340.6C338 340.6 338.8 340.6 339.7 340.6C345.2 340.6 350.7 340.6 356.3 340.6C358.5 340.6 358.9 340.2 358.9 338.1C358.9 326.3 358.9 314.6 358.9 302.8C358.9 300.5 358.6 300.3 356.2 300.2C350.8 300.2 345.3 300.2 339.9 300.2C339.1 300.4 338.2 300.4 337 300.4Z" fill="white"/>
<path d="M775 259.5C810.7 259.6 839.6 288.5 839.4 324.1C839.1 361.5 808.2 388.9 773.8 388.3C740 387.7 710.2 360.2 710.5 323.3C710.8 287.2 740.4 259.4 775 259.5ZM761.7 293.7C761.7 302.1 768.3 308.8 776.7 308.8C785.1 308.9 792 302 792 293.6C792 285.3 785.3 278.5 777 278.4C768.5 278.5 761.7 285.3 761.7 293.7ZM776.8 338.4C768.4 338.4 761.8 345.1 761.7 353.5C761.7 362 768.4 368.7 776.9 368.7C785.2 368.7 792 362 792 353.7C792 345.1 785.2 338.3 776.8 338.4ZM821.8 324C821.8 315.5 815.1 308.7 806.6 308.8C798.3 308.8 791.5 315.6 791.5 323.9C791.5 332.3 798.3 339.2 806.7 339.1C815.1 339.1 821.8 332.4 821.8 324ZM746.9 308.8C738.4 308.9 731.8 315.7 731.9 324.2C732 332.5 738.7 339.1 747 339.1C755.4 339.1 762.4 332.1 762.2 323.8C762 315.5 755.1 308.7 746.9 308.8Z" fill="white"/>
<path d="M666.7 386.1C681.3 386.1 693.1 397.9 693.1 412.4C693.1 427 681.3 439 666.6 439C652 439 640.2 427.1 640.2 412.4C640.3 397.8 652.1 386.1 666.7 386.1Z" fill="white"/>
<path d="M423.1 439.1C408.5 439.1 396.7 427.4 396.7 412.8C396.7 398.1 408.5 386.3 423.2 386.3C437.8 386.3 449.6 398.1 449.6 412.7C449.6 427.4 437.8 439.2 423.1 439.1Z" fill="white"/>
<path d="M337 300.4C338.2 300.4 339.1 300.4 339.9 300.4C345.3 300.4 350.8 300.4 356.2 300.4C358.6 300.4 358.9 300.7 358.9 303C358.9 314.8 358.9 326.5 358.9 338.3C358.9 340.4 358.5 340.8 356.3 340.8C350.8 340.8 345.3 340.8 339.7 340.8C338.8 340.8 338 340.8 337 340.8C337 341.8 336.9 342.6 336.9 343.4C336.9 349.2 336.9 354.9 336.9 360.7C336.9 363.3 336.7 363.4 334.2 363.4C322.5 363.4 310.8 363.4 299.2 363.4C296.8 363.4 296.6 363.2 296.6 360.8C296.6 355.1 296.6 349.4 296.6 343.8C296.6 342.9 296.6 342.1 296.6 340.9C295.6 340.9 294.8 340.8 294 340.8C288.6 340.8 283.1 340.8 277.7 340.8C274.8 340.8 274.6 340.6 274.6 337.9C274.6 326.4 274.6 314.9 274.6 303.4C274.6 300.8 274.8 300.6 277.5 300.6C282.9 300.6 288.4 300.6 293.8 300.6C294.6 300.6 295.4 300.6 296.5 300.6C296.5 299.7 296.6 298.8 296.6 298C296.6 292.5 296.6 287 296.6 281.5C296.6 278.8 296.8 278.6 299.5 278.6C311 278.6 322.5 278.6 334.1 278.6C336.9 278.6 337 278.7 337 281.6C337 287 337 292.5 337 297.9C337 298.5 337 299.3 337 300.4ZM334.2 281.3C322.5 281.3 311.2 281.3 299.7 281.3C299.7 282.2 299.6 283 299.6 283.8C299.6 289.3 299.6 294.8 299.6 300.4C299.6 303.1 299.4 303.3 296.8 303.3C291.3 303.3 285.8 303.3 280.2 303.3C279.4 303.3 278.5 303.4 277.7 303.4C277.7 315 277.7 326.3 277.7 337.8C278.6 337.8 279.4 337.9 280.2 337.9C285.7 337.9 291.2 337.9 296.8 337.9C299.5 337.9 299.7 338.1 299.7 340.7C299.7 346.5 299.7 352.4 299.7 358.2C299.7 358.9 299.8 359.6 299.8 360.4C311.3 360.4 322.7 360.4 334.3 360.4C334.3 357.9 334.3 355.5 334.3 353.1C334.3 348.9 334.3 344.6 334.3 340.4C334.3 338.3 334.7 338 336.8 337.9C337.3 337.9 337.8 337.9 338.2 337.9C343.4 337.9 348.6 337.9 353.8 337.9C354.6 337.9 355.3 337.8 356 337.8C356 326.2 356 314.8 356 303.3C355 303.3 354.3 303.3 353.5 303.3C348.2 303.3 342.9 303.3 337.7 303.3C334.4 303.3 334.3 303.2 334.3 300C334.3 294.7 334.3 289.4 334.3 284.2C334.2 283.2 334.2 282.4 334.2 281.3Z" fill="black"/>
<path d="M761.7 293.7C761.7 285.2 768.5 278.4 776.9 278.5C785.2 278.6 791.9 285.4 791.9 293.7C791.9 302.1 785 308.9 776.6 308.9C768.4 308.8 761.7 302.1 761.7 293.7Z" fill="black"/>
<path d="M776.8 338.4C785.2 338.4 792 345.2 792 353.6C792 361.9 785.2 368.6 776.9 368.6C768.4 368.6 761.7 361.9 761.7 353.4C761.7 345 768.4 338.4 776.8 338.4Z" fill="black"/>
<path d="M821.8 324C821.8 332.4 815.1 339.1 806.7 339.1C798.3 339.1 791.5 332.3 791.5 323.9C791.5 315.6 798.3 308.9 806.6 308.8C815.1 308.7 821.9 315.5 821.8 324Z" fill="black"/>
<path d="M746.9 308.8C755.2 308.7 762.1 315.5 762.2 323.8C762.3 332.1 755.4 339.1 747 339.1C738.7 339.1 732 332.5 731.9 324.2C731.8 315.7 738.4 308.9 746.9 308.8Z" fill="black"/>
<path d="M334.2 281.3C334.2 282.4 334.2 283.2 334.2 284.1C334.2 289.4 334.2 294.7 334.2 299.9C334.2 303.1 334.3 303.2 337.6 303.2C342.9 303.2 348.2 303.2 353.4 303.2C354.2 303.2 355 303.2 355.9 303.2C355.9 314.7 355.9 326 355.9 337.7C355.2 337.7 354.5 337.8 353.7 337.8C348.5 337.8 343.3 337.8 338.1 337.8C337.6 337.8 337.1 337.8 336.7 337.8C334.5 337.9 334.2 338.2 334.2 340.3C334.2 344.5 334.2 348.8 334.2 353C334.2 355.4 334.2 357.8 334.2 360.3C322.6 360.3 311.2 360.3 299.7 360.3C299.7 359.5 299.6 358.8 299.6 358.1C299.6 352.3 299.6 346.4 299.6 340.6C299.6 337.9 299.4 337.8 296.7 337.8C291.2 337.8 285.7 337.8 280.1 337.8C279.3 337.8 278.5 337.7 277.6 337.7C277.6 326.2 277.6 314.9 277.6 303.3C278.4 303.3 279.3 303.2 280.1 303.2C285.6 303.2 291.1 303.2 296.7 303.2C299.3 303.2 299.5 303 299.5 300.3C299.5 294.8 299.5 289.3 299.5 283.7C299.5 282.9 299.6 282.1 299.6 281.2C311.2 281.3 322.5 281.3 334.2 281.3ZM331.1 306.4C331.1 302.6 331.1 299 331.1 295.4C331.1 291.8 331.1 288.1 331.1 284.4C321.5 284.4 312.3 284.4 302.7 284.4C302.7 291.7 302.7 299 302.7 306.4C298.8 306.4 295.2 306.4 291.6 306.4C288 306.4 284.4 306.4 280.9 306.4C280.4 309.5 280.5 333 281.1 334.7C284.7 334.7 288.2 334.7 291.8 334.7C295.4 334.7 298.9 334.6 302.8 334.8C302.8 342.3 302.8 349.4 302.8 356.7C312.3 356.7 321.6 356.7 331.1 356.7C331.1 349.4 331.1 342.2 331.1 334.7C338.6 334.7 345.8 334.7 353.1 334.7C353.1 325.1 353.1 315.9 353.1 306.4C345.7 306.4 338.6 306.4 331.1 306.4Z" fill="white"/>
<path d="M331.1 306.4C338.5 306.4 345.7 306.4 353 306.4C353 315.9 353 325.1 353 334.7C345.7 334.7 338.5 334.7 331 334.7C331 342.2 331 349.4 331 356.7C321.5 356.7 312.3 356.7 302.7 356.7C302.7 349.5 302.7 342.3 302.7 334.8C298.9 334.7 295.3 334.7 291.7 334.7C288.1 334.7 284.5 334.7 281 334.7C280.4 332.9 280.3 309.5 280.8 306.4C284.3 306.4 287.9 306.4 291.5 306.4C295.1 306.4 298.7 306.4 302.6 306.4C302.6 298.9 302.6 291.7 302.6 284.4C312.2 284.4 321.4 284.4 331 284.4C331 288.1 331 291.8 331 295.4C331.1 299 331.1 302.6 331.1 306.4Z" fill="black"/>
</svg>
